<?xml version="1.0" encoding="UTF-8" standalone="no"?>
<!-- Generator: Adobe Illustrator 16.0.0, SVG Export Plug-In . SVG Version: 6.00 Build 0)  -->

<svg
   xmlns:dc="http://purl.org/dc/elements/1.1/"
   xmlns:cc="http://creativecommons.org/ns#"
   xmlns:rdf="http://www.w3.org/1999/02/22-rdf-syntax-ns#"
   xmlns:svg="http://www.w3.org/2000/svg"
   xmlns="http://www.w3.org/2000/svg"
   xmlns:sodipodi="http://sodipodi.sourceforge.net/DTD/sodipodi-0.dtd"
   xmlns:inkscape="http://www.inkscape.org/namespaces/inkscape"
   version="1.1"
   id="Capa_1"
   x="0px"
   y="0px"
   width="512px"
   height="512px"
   viewBox="0 0 194.355 194.355"
   style="enable-background:new 0 0 194.355 194.355;"
   xml:space="preserve"
   sodipodi:docname="cpu.svg"
   inkscape:version="0.92.2 5c3e80d, 2017-08-06"><metadata
     id="metadata41"><rdf:RDF><cc:Work
         rdf:about=""><dc:format>image/svg+xml</dc:format><dc:type
           rdf:resource="http://purl.org/dc/dcmitype/StillImage" /></cc:Work></rdf:RDF></metadata><defs
     id="defs39" /><sodipodi:namedview
     pagecolor="#ffffff"
     bordercolor="#666666"
     borderopacity="1"
     objecttolerance="10"
     gridtolerance="10"
     guidetolerance="10"
     inkscape:pageopacity="0"
     inkscape:pageshadow="2"
     inkscape:window-width="640"
     inkscape:window-height="480"
     id="namedview37"
     showgrid="false"
     inkscape:zoom="0.4609375"
     inkscape:cx="256"
     inkscape:cy="256"
     inkscape:window-x="0"
     inkscape:window-y="26"
     inkscape:window-maximized="0"
     inkscape:current-layer="Capa_1" /><g
     id="g4"
     transform="matrix(0.8135609,0,0,0.81724103,18.941131,-0.35769584)"><path
       d="m 193.978,161.954 c -7.633,-12.803 -20.761,-20.616 -29.161,-32.767 -0.021,-0.03 -0.046,-0.051 -0.068,-0.08 0.335,-0.265 0.682,-0.516 0.987,-0.815 5.963,-5.841 6.067,-14.158 6.695,-22.009 0.983,-12.296 0.808,-24.684 1.022,-37.008 0.157,-9.011 0.743,-18.04 -0.672,-26.983 -2.974,-18.797 -22.441,-17.208 -37.184,-17.161 -26.887,0.085 -53.749,1.728 -80.599,2.967 -8.416,0.388 -18.14,-0.599 -26.317,1.81 -4.77,1.404 -5.343,6.976 -5.871,11.107 -1.507,11.788 -1.487,23.437 -1.798,35.292 -0.299,11.357 -1.434,22.639 -0.648,34.005 0.229,3.321 0.848,6.547 1.737,9.751 0.208,0.751 0.615,1.262 1.109,1.585 0.152,0.68 0.623,1.293 1.518,1.673 0.777,0.331 1.575,0.623 2.37,0.921 -9.119,13.132 -16.431,27.49 -26.38,40.036 -1.425,1.797 -0.724,5.003 2.025,4.89 32.316,-1.335 64.325,-3.521 96.673,-1.825 30.987,1.625 61.964,3.82 92.784,-1.023 1.922,-0.306 2.678,-2.857 1.778,-4.366 z m -60.48,-11.429 c 0.356,0.526 0.709,1.053 1.065,1.579 -0.534,-0.338 -1.087,-0.649 -1.63,-0.974 0.232,-0.164 0.421,-0.37 0.565,-0.605 z M 56.806,122.879 c -9.696,-0.452 -20.003,-0.888 -29.056,-4.728 -0.107,-0.045 -0.21,-0.064 -0.316,-0.099 -3.489,-17.095 -0.38,-35.395 -0.315,-52.704 0.035,-9.351 0.264,-19.063 2.376,-28.213 0.989,-4.286 19.024,-2.82 22.304,-2.968 21.501,-0.97 42.989,-2.183 64.504,-2.807 10.685,-0.31 21.374,-0.403 32.062,-0.284 9.832,0.109 16.588,2.599 18.731,12.779 1.507,7.16 0.732,15.123 0.532,22.367 -0.287,10.32 -0.245,20.645 -0.604,30.964 -0.278,8.014 1.089,21.916 -6.052,27.359 -5.193,3.959 -13.907,2.372 -19.868,1.665 -18.757,-2.225 -37.413,-1.925 -56.278,-2.155 -9.342,-0.112 -18.684,-0.741 -28.02,-1.176 z m 25.782,32.002 c 0.381,-1.243 0.993,-2.293 2.467,-3.134 2.115,-1.206 5.06,-1.223 7.41,-1.332 4.094,-0.19 8.182,0.176 12.274,0.043 0.438,1.565 0.862,3.134 1.159,4.728 -7.761,0.026 -15.558,0.073 -23.31,-0.305 z"
       id="path2"
       inkscape:connector-curvature="0"
       style="fill:#0d1624" /></g><g
     id="g6" /><g
     id="g8" /><g
     id="g10" /><g
     id="g12" /><g
     id="g14" /><g
     id="g16" /><g
     id="g18" /><g
     id="g20" /><g
     id="g22" /><g
     id="g24" /><g
     id="g26" /><g
     id="g28" /><g
     id="g30" /><g
     id="g32" /><g
     id="g34" /></svg>