<?xml version="1.0" encoding="UTF-8" standalone="no"?>
<!-- Generator: Adobe Illustrator 16.0.0, SVG Export Plug-In . SVG Version: 6.00 Build 0)  -->

<svg
   xmlns:dc="http://purl.org/dc/elements/1.1/"
   xmlns:cc="http://creativecommons.org/ns#"
   xmlns:rdf="http://www.w3.org/1999/02/22-rdf-syntax-ns#"
   xmlns:svg="http://www.w3.org/2000/svg"
   xmlns="http://www.w3.org/2000/svg"
   xmlns:sodipodi="http://sodipodi.sourceforge.net/DTD/sodipodi-0.dtd"
   xmlns:inkscape="http://www.inkscape.org/namespaces/inkscape"
   version="1.1"
   id="Capa_1"
   x="0px"
   y="0px"
   width="512px"
   height="512px"
   viewBox="0 0 465.519 465.519"
   style="enable-background:new 0 0 465.519 465.519;"
   xml:space="preserve"
   sodipodi:docname="human.svg"
   inkscape:version="0.92.2 5c3e80d, 2017-08-06"><metadata
     id="metadata43"><rdf:RDF><cc:Work
         rdf:about=""><dc:format>image/svg+xml</dc:format><dc:type
           rdf:resource="http://purl.org/dc/dcmitype/StillImage" /></cc:Work></rdf:RDF></metadata><defs
     id="defs41" /><sodipodi:namedview
     pagecolor="#ffffff"
     bordercolor="#666666"
     borderopacity="1"
     objecttolerance="10"
     gridtolerance="10"
     guidetolerance="10"
     inkscape:pageopacity="0"
     inkscape:pageshadow="2"
     inkscape:window-width="640"
     inkscape:window-height="480"
     id="namedview39"
     showgrid="false"
     inkscape:zoom="0.4609375"
     inkscape:cx="256"
     inkscape:cy="256"
     inkscape:window-x="0"
     inkscape:window-y="26"
     inkscape:window-maximized="0"
     inkscape:current-layer="Capa_1" /><g
     id="g6"
     transform="matrix(0.64755066,0,0,0.60169371,82.035837,92.709508)"><g
       id="g4"><path
         d="M 455.175,69.675 C 431.196,50.102 409.071,28.792 386.404,7.972 380.245,2.315 372.734,2.445 366.93,5.54 c -5.062,2.702 -10.496,10.59 -14.335,14.866 -33.85,37.62 -68.659,74.362 -107.531,107.6 -4.362,3.732 -11.058,3.225 -14.815,-1.117 C 197.402,88.947 168.62,48.346 140.656,7.24 136.88,1.692 131.2,-0.331 125.686,0.044 c -5.735,0.388 -11.56,3.633 -13.604,4.565 -1.19,0.536 -2.356,1.222 -3.488,2.08 -24.363,18.457 -49.733,35.687 -75.176,52.861 -0.381,0.254 -0.729,0.53 -1.056,0.808 -0.562,0.477 -5.553,2.968 -8.501,7.896 -3.194,5.337 -3.48,12.22 1.933,18.093 41.588,45.092 80.755,92 122.176,137.217 3.88,4.232 3.438,10.593 -0.924,14.325 -47.642,40.775 -86.709,89.402 -137.9,126.832 -3.006,2.199 -4.738,4.697 -5.461,7.257 -1.386,4.921 1.265,11.542 2.773,14.213 0.82,1.458 1.995,2.874 3.582,4.215 23.583,19.972 45.286,41.645 67.524,62.83 6.053,5.769 13.574,5.758 19.438,2.752 5.106,-2.62 10.679,-10.404 14.602,-14.599 34.599,-37.064 70.134,-73.23 109.674,-105.83 4.43,-3.656 11.1,-3.032 14.782,1.386 32.093,38.481 60.057,79.552 87.209,121.109 3.666,5.606 9.308,7.724 14.832,7.439 5.738,-0.294 11.619,-3.442 13.69,-4.337 1.193,-0.522 2.377,-1.183 3.524,-2.021 24.725,-18.058 50.435,-34.855 76.215,-51.607 0.381,-0.254 0.736,-0.518 1.077,-0.792 0.563,-0.468 5.591,-2.874 8.638,-7.739 3.306,-5.281 3.732,-12.167 -1.574,-18.134 -41.132,-46.27 -79.755,-94.354 -120.76,-140.71 -3.809,-4.302 -3.347,-10.771 0.965,-14.566 47.438,-41.792 85.787,-91.612 136.699,-130.242 2.966,-2.25 4.651,-4.778 5.316,-7.346 1.29,-4.94 -1.498,-11.514 -3.057,-14.165 -0.846,-1.439 -2.044,-2.838 -3.659,-4.159 z m -42.092,19.832 c -46.936,40.398 -84.594,89.073 -133.281,127.988 -2.112,1.696 -3.55,3.526 -4.408,5.413 -1.609,3.542 -1.812,10.191 -0.726,14.035 0.594,2.118 1.747,4.215 3.564,6.221 40.771,44.772 78.633,91.658 118.165,137.339 3.763,4.342 2.925,10.396 -1.869,13.543 -14.355,9.436 -28.619,18.981 -42.675,28.782 -4.713,3.285 -11.075,2.098 -14.27,-2.676 -25.248,-37.771 -51.709,-74.758 -81.466,-109.705 -3.723,-4.372 -8.557,-12.558 -13.299,-15.797 -5.947,-4.058 -14.485,-5.18 -21.754,0.314 -46.207,34.906 -86.562,75.007 -125.52,116.433 -3.936,4.189 -10.461,4.353 -14.607,0.381 -9.478,-9.095 -19.009,-18.144 -28.764,-26.994 -4.248,-3.854 -4.083,-9.821 0.338,-13.487 47.735,-39.618 86.348,-87.661 135.8,-125.767 1.975,-1.518 3.369,-3.168 4.283,-4.88 1.706,-3.184 2.163,-9.579 0.982,-13.302 -0.655,-2.049 -1.831,-4.077 -3.638,-5.994 C 148.281,177.259 109.5,131.006 69.072,85.985 65.233,81.712 65.957,75.649 70.699,72.409 84.859,62.743 98.923,52.971 112.77,42.942 c 4.654,-3.369 11.04,-2.298 14.32,2.417 25.994,37.351 53.189,73.905 83.647,108.359 3.801,4.306 8.788,12.393 13.581,15.554 6.022,3.968 14.594,4.951 21.754,-0.66 45.503,-35.66 85.051,-76.424 123.176,-118.484 3.859,-4.253 10.385,-4.545 14.604,-0.646 9.658,8.945 19.383,17.837 29.311,26.525 4.333,3.786 4.282,9.75 -0.08,13.5 z"
         id="path2"
         inkscape:connector-curvature="0"
         style="fill:#ffffff" /></g></g><g
     id="g8" /><g
     id="g10" /><g
     id="g12" /><g
     id="g14" /><g
     id="g16" /><g
     id="g18" /><g
     id="g20" /><g
     id="g22" /><g
     id="g24" /><g
     id="g26" /><g
     id="g28" /><g
     id="g30" /><g
     id="g32" /><g
     id="g34" /><g
     id="g36" /></svg>