<?xml version="1.0" encoding="UTF-8" standalone="no"?>
<!-- Created with Inkscape (http://www.inkscape.org/) -->

<svg
   xmlns:dc="http://purl.org/dc/elements/1.1/"
   xmlns:cc="http://creativecommons.org/ns#"
   xmlns:rdf="http://www.w3.org/1999/02/22-rdf-syntax-ns#"
   xmlns:svg="http://www.w3.org/2000/svg"
   xmlns="http://www.w3.org/2000/svg"
   xmlns:sodipodi="http://sodipodi.sourceforge.net/DTD/sodipodi-0.dtd"
   xmlns:inkscape="http://www.inkscape.org/namespaces/inkscape"
   width="80mm"
   height="25mm"
   viewBox="0 0 80 25"
   version="1.1"
   id="svg8"
   sodipodi:docname="scribble.svg"
   inkscape:version="0.92.2 5c3e80d, 2017-08-06">
  <defs
     id="defs2" />
  <sodipodi:namedview
     id="base"
     pagecolor="#ffffff"
     bordercolor="#666666"
     borderopacity="1.0"
     inkscape:pageopacity="0.0"
     inkscape:pageshadow="2"
     inkscape:zoom="2.8"
     inkscape:cx="245.48004"
     inkscape:cy="14.590381"
     inkscape:document-units="mm"
     inkscape:current-layer="layer1"
     showgrid="false"
     inkscape:window-width="1920"
     inkscape:window-height="1005"
     inkscape:window-x="0"
     inkscape:window-y="26"
     inkscape:window-maximized="1" />
  <metadata
     id="metadata5">
    <rdf:RDF>
      <cc:Work
         rdf:about="">
        <dc:format>image/svg+xml</dc:format>
        <dc:type
           rdf:resource="http://purl.org/dc/dcmitype/StillImage" />
        <dc:title></dc:title>
      </cc:Work>
    </rdf:RDF>
  </metadata>
  <g
     inkscape:label="Layer 1"
     inkscape:groupmode="layer"
     id="layer1"
     transform="translate(0,-272)">
    <path
       style="fill:#ffffff;stroke-width:0.26458332"
       id="path171"
       d="m 5.8771681,275.83333 c 0.4310433,0 0.8620868,0 1.2931301,0 0.6420104,0 1.284021,0 1.9260314,0 0.8120581,0.0182 1.6220434,0.0681 2.4306754,0.14288 0.888109,0.0696 1.776353,0.1291 2.663637,0.20971 0.901929,0.0828 1.805699,0.14373 2.707067,0.23234 1.125825,0.11024 2.252481,0.20882 3.37984,0.30163 1.156524,0.10747 2.308876,0.25718 3.460658,0.40648 1.106826,0.1256 2.211554,0.26808 3.317312,0.40251 1.237342,0.17261 2.475989,0.33373 3.71702,0.47744 1.108376,0.11554 2.217034,0.22972 3.323582,0.36182 1.169823,0.12988 2.337982,0.27453 3.506425,0.41629 1.197679,0.11759 2.387449,0.29624 3.578479,0.46528 0.942197,0.15433 1.891337,0.25345 2.838185,0.3726 0.851842,0.0986 1.698707,0.22955 2.55347,0.30133 0.849011,0.0789 1.698821,0.1485 2.548027,0.22502 0.827927,0.0878 1.653109,0.19846 2.479914,0.29573 0.786299,0.0805 1.572881,0.15876 2.358165,0.24871 0.782283,0.0849 1.566743,0.1463 2.350516,0.21501 0.8055,0.0628 1.607409,0.16285 2.41205,0.23464 0.757269,0.05 1.515385,0.0757 2.271837,0.13901 0.716893,0.0504 1.430038,0.13819 2.144471,0.21341 0.646107,0.061 1.290725,0.13281 1.93884,0.16931 0.570847,0.0485 1.142278,0.0875 1.711892,0.14901 0.384548,0.0337 0.763886,0.10793 1.148095,0.14425 0.261459,0.0233 0.517748,0.0884 0.779656,0.10678 3.859998,0.34525 3.371736,5.80412 -0.488262,5.45886 v 0 c -0.279186,-0.0263 -0.55812,-0.0594 -0.833713,-0.11188 -0.400208,-0.0408 -0.796824,-0.10553 -1.196482,-0.14928 -0.478153,-0.052 -0.958006,-0.0821 -1.436984,-0.12619 -0.736111,-0.0433 -1.468906,-0.11904 -2.202633,-0.19093 -0.677277,-0.0726 -1.353489,-0.15492 -2.03323,-0.20273 -0.763783,-0.0678 -1.530673,-0.0786 -2.294853,-0.14103 -0.80106,-0.0726 -1.59971,-0.16962 -2.401567,-0.23371 -0.832337,-0.0737 -1.665576,-0.13816 -2.496249,-0.22981 -0.790358,-0.0915 -1.582414,-0.16763 -2.373704,-0.25052 -0.777441,-0.0919 -1.553612,-0.19415 -2.331738,-0.28029 -0.840412,-0.0764 -1.681591,-0.14427 -2.521831,-0.22271 -0.927674,-0.0807 -1.848149,-0.21266 -2.772323,-0.32452 -0.974825,-0.12359 -1.952228,-0.22569 -2.922474,-0.3839 -1.154157,-0.16413 -2.307076,-0.33745 -3.467814,-0.45072 -1.165447,-0.14147 -2.330622,-0.28568 -3.497458,-0.4152 -1.099542,-0.13197 -2.20149,-0.24343 -3.302807,-0.35938 -1.25135,-0.14495 -2.500508,-0.30609 -3.748011,-0.48111 -1.120282,-0.13623 -2.239559,-0.28023 -3.360867,-0.40799 -1.066903,-0.13851 -2.134336,-0.27728 -3.205386,-0.37943 -1.157719,-0.0954 -2.314716,-0.19675 -3.470867,-0.30988 -0.88619,-0.0888 -1.775352,-0.14491 -2.662108,-0.22807 -0.890575,-0.0809 -1.782262,-0.13866 -2.673548,-0.21063 -0.640653,-0.0595 -1.2816057,-0.0997 -1.9249044,-0.11948 -0.6420104,0 -1.284021,0 -1.9260314,0 -0.4310433,0 -0.8620868,0 -1.2931301,0 -3.8754082,0 -3.8754082,-5.48066 0,-5.48066 z"
       inkscape:connector-curvature="0" />
    <path
       style="fill:#ffffff;stroke-width:0.26458332"
       id="path173"
       d="m 72.658689,280.46354 c -0.315093,-0.0102 -0.627166,0.0288 -0.941631,0.0505 -0.392867,0.0138 -0.778537,0.10302 -1.163831,0.17552 -0.638918,0.11791 -1.273421,0.25743 -1.910561,0.38406 -0.719693,0.13334 -1.43101,0.30649 -2.148287,0.45149 -0.831004,0.19291 -1.662679,0.38313 -2.492878,0.57947 -1.085781,0.24832 -2.167443,0.51347 -3.247972,0.7836 -1.13143,0.3043 -2.277372,0.54706 -3.422436,0.79284 -1.14015,0.26976 -2.285968,0.51418 -3.430177,0.76586 -1.150485,0.26622 -2.300938,0.53294 -3.4558,0.77959 -1.22166,0.27122 -2.447139,0.52497 -3.671641,0.78303 -1.505127,0.32623 -3.023711,0.58253 -4.543213,0.83076 -1.406499,0.22602 -2.814757,0.44085 -4.222708,0.65756 -1.173898,0.1815 -2.346804,0.36944 -3.518257,0.5661 -1.072449,0.17551 -2.14199,0.36649 -3.213005,0.55028 -1.081259,0.14545 -2.156322,0.32536 -3.230478,0.51514 -0.848336,0.16334 -1.695719,0.33055 -2.544784,0.49029 -0.772998,0.1508 -1.539876,0.32933 -2.31229,0.48305 -0.763494,0.14683 -1.526897,0.297 -2.295281,0.41634 -0.561287,0.0917 -1.121797,0.18988 -1.680068,0.29871 -0.541727,0.11962 -1.092156,0.19294 -1.636237,0.29979 -0.31225,0.0843 -0.623336,0.17333 -0.934809,0.26085 -0.266574,0.0763 -0.528163,0.16664 -0.790779,0.25445 -0.283663,0.0809 -0.561042,0.18043 -0.843914,0.26418 -0.2153,0.0544 -0.288599,0.0751 -0.515494,0.13722 -0.02161,0.006 0.08572,-0.0248 0.06544,-0.0153 -0.03219,0.0151 -0.06779,0.0216 -0.101688,0.0323 -0.215556,0.0625 -0.349992,0.1116 -0.605462,0.19332 -0.163005,0.0617 -0.336265,0.11103 -0.504371,0.17573 0.01541,-0.005 0.06066,-0.0218 0.04624,-0.0145 -0.239479,0.12092 -0.508329,0.21183 -0.760264,0.30222 -0.279379,0.10199 -0.392541,0.14295 -0.680355,0.23296 0.408888,-0.14719 -0.09658,0.05 -0.141749,0.0668 -0.20814,0.0774 -0.306157,0.0956 -0.212086,0.0774 -0.168689,0.0622 -0.192856,0.0799 -0.459927,0.17806 -0.04592,0.0169 0.08992,-0.04 0.137549,-0.0512 0.031,-0.007 -0.05805,0.0262 -0.08707,0.0393 -0.710715,0.29765 0.258797,-0.11919 -0.12245,0.055 -0.08256,0.0377 -0.164095,0.0782 -0.249108,0.10999 -0.07098,0.0266 0.136054,-0.0673 0.20692,-0.0942 0.03782,-0.0143 -0.0716,0.0376 -0.107399,0.0565 -0.881831,0.40225 0.211541,-0.0924 -0.418998,0.18987 -0.013,0.006 0.05271,-0.0216 0.03982,-0.0155 -0.139024,0.0656 -0.220418,0.0937 -0.140536,0.0655 -0.5197843,0.2467 0.20429,-0.0975 -0.328382,0.15792 -3.5057951,1.65172 -5.8416844,-3.30622 -2.3358894,-4.95794 v 0 c 0.077707,-0.0306 0.1471533,-0.0793 0.2255401,-0.10816 0.1482349,-0.0714 0.2627439,-0.12494 0.4128127,-0.19307 0.00796,-0.004 -0.031205,0.0157 -0.02322,0.0122 0.057263,-0.0255 0.1112266,-0.0594 0.1710952,-0.0779 0.047909,-0.0148 -0.0899,0.0444 -0.13485,0.0667 0.9210876,-0.45338 -0.3285937,0.14159 0.6139088,-0.29161 0.021458,-0.01 -0.042941,0.0197 -0.064411,0.0295 0.3040544,-0.13721 0.3753117,-0.15441 0.6869068,-0.28241 0.2344901,-0.0876 0.4567338,-0.1745 0.7610658,-0.28365 -0.0076,0.003 -0.03069,0.012 -0.02277,0.01 0.130552,-0.0379 0.297647,-0.10166 0.298064,-0.10182 0.06675,-0.0248 0.133311,-0.0501 0.199967,-0.0751 -0.01016,0.005 -0.04137,0.0169 -0.03049,0.0143 0.215347,-0.0533 0.40267,-0.20359 0.617861,-0.25685 0.263858,-0.0965 0.530386,-0.18244 0.795729,-0.27435 0.182947,-0.0596 0.334838,-0.10739 0.555653,-0.17774 0.234885,-0.0747 0.472498,-0.14218 0.710932,-0.20479 0.0039,-10e-4 -0.0072,0.004 -0.01079,0.006 0.220004,-0.0439 0.422954,-0.16266 0.644416,-0.20278 0.341248,-0.10586 0.676298,-0.23277 1.022042,-0.32486 0.459209,-0.12857 0.916546,-0.26502 1.382831,-0.36648 0.541735,-0.10248 1.087406,-0.1832 1.62683,-0.29797 0.628823,-0.12115 1.25948,-0.23367 1.891717,-0.33541 0.688955,-0.10346 1.371876,-0.2456 2.056382,-0.3743 0.791075,-0.15724 1.576007,-0.34252 2.368309,-0.49389 0.868954,-0.1634 1.735984,-0.33542 2.604466,-0.50117 1.083511,-0.19139 2.1678,-0.37547 3.258759,-0.52006 1.077134,-0.18405 2.15256,-0.37687 3.231009,-0.55333 1.195891,-0.20065 2.393215,-0.39271 3.5916,-0.57789 1.391391,-0.21417 2.783083,-0.42646 4.173059,-0.6497 1.43693,-0.23464 2.873224,-0.47568 4.29647,-0.78463 1.220042,-0.25712 2.441067,-0.50985 3.658254,-0.78019 1.143714,-0.24373 2.282555,-0.50962 3.422041,-0.77228 1.153322,-0.25366 2.308117,-0.50054 3.457491,-0.77179 1.085098,-0.23284 2.171274,-0.4617 3.243172,-0.75121 1.103574,-0.2759 2.208363,-0.54651 3.317229,-0.80043 0.891038,-0.21028 1.78303,-0.41683 2.67584,-0.61941 0.723577,-0.14328 1.439392,-0.32424 2.16562,-0.45494 0.654928,-0.12752 1.306158,-0.27417 1.962679,-0.39406 0.594537,-0.11068 1.190755,-0.23143 1.796547,-0.25611 0.438365,-0.0298 0.876501,-0.0756 1.316519,-0.0633 3.875408,0 3.875408,5.48065 0,5.48065 z"
       inkscape:connector-curvature="0" />
  </g>
</svg>
